<?xml version="1.0" encoding="utf-8"?>
<!-- Generator: Adobe Illustrator 24.3.0, SVG Export Plug-In . SVG Version: 6.00 Build 0)  -->
<svg version="1.1" id="Layer_1" xmlns="http://www.w3.org/2000/svg" xmlns:xlink="http://www.w3.org/1999/xlink" x="0px" y="0px"
	 viewBox="0 0 875.5 208.9" style="enable-background:new 0 0 875.5 208.9;" xml:space="preserve">
<style type="text/css">
	.st0{fill:none;}
	.st1{fill:#0000A4;}
	.st2{display:none;}
	.st3{display:inline;fill:none;stroke:#FF00FF;stroke-width:0.5669;stroke-miterlimit:10;}
	.st4{display:inline;fill:none;stroke:#00FFFF;stroke-width:0.5669;stroke-miterlimit:10;}
</style>
<g id="POS_logo">
	<rect x="-255.1" y="-71.4" class="st0" width="1275.6" height="382.7"/>
	<g>
		<g>
			<path class="st1" d="M0,68.9h40.9v33.8c8-3,16.3-4.5,24.9-4.5c32.1,0,55.3,23.5,55.3,55.7c0,24.3-16.6,53.1-54.5,53.1H0V68.9z
				 M40.8,171.6c5.4,1,11.4,1.4,15.4,1.4c14.6,0,24.3-7.9,24.3-20.2c0-12.1-9.4-20.5-23.1-20.5c-5,0-11,0.6-16.6,2.4L40.8,171.6
				L40.8,171.6z"/>
			<path class="st1" d="M189.8,98.3c45.1,0,62.4,29.4,62.4,55.3c0,28.4-19.9,55.3-62,55.3c-45.1,0-62.8-29.2-62.8-55.3
				C127.4,126,146.1,98.3,189.8,98.3z M189.8,174.2c12.8,0,21.5-8.5,21.5-20.7c0-12.1-8.8-20.7-21.5-20.7s-21.5,8.5-21.5,20.7
				C168.3,165.7,177,174.2,189.8,174.2z"/>
			<path class="st1" d="M260.4,68.9h40.8V207h-40.8V68.9z"/>
			<path class="st1" d="M354.6,184c0,13.8-10.7,24.9-24.1,24.9c-13.4,0-24.3-11.1-24.3-24.9s10.9-24.7,24.3-24.7
				C344,159.2,354.6,170.2,354.6,184z"/>
			<path class="st1" d="M446.9,202.2c-13.6,5.1-21.8,6.7-33,6.7c-34.8,0-58.9-22.5-58.9-54.7c0-26.7,17.5-55.9,57.8-55.9
				c11,0,22.8,1.8,33.4,5.5v35.4c-9-4.2-17.3-6.3-25.9-6.3c-14.5,0-24.4,8.5-24.4,20.9c0,12.1,10.4,20.5,25.5,20.5
				c7.7,0,14.3-1.8,25.5-6.7V202.2z"/>
			<path class="st1" d="M514.7,98.3c45.1,0,62.4,29.4,62.4,55.3c0,28.4-19.8,55.3-62,55.3c-45.1,0-62.8-29.2-62.8-55.3
				C452.3,126,471,98.3,514.7,98.3z M514.7,174.2c12.8,0,21.5-8.5,21.5-20.7c0-12.1-8.8-20.7-21.5-20.7s-21.5,8.5-21.5,20.7
				C493.2,165.7,501.9,174.2,514.7,174.2z"/>
			<path class="st1" d="M585.9,100.1h40.8v14.2c9.9-10.9,21.5-16,34.4-16c14.7,0,24.2,5.7,32,19c10.7-12.4,23.8-19,37.9-19
				c24,0,34.4,19,34.4,40.3v68.5h-40.8v-61.4c0-7.7-4.5-12.8-11.4-12.8c-6,0-12.8,3.9-17.1,10.9v63.2h-41.1v-60.6
				c0-7.9-4.7-13.6-12-13.6c-5.2,0-12,3.9-16.5,10.9v63.2h-40.8V100.1z"/>
		</g>
		<g>
			<path class="st1" d="M813.6,4c31.9,0,57.9,26.3,57.9,58.6c0,32.3-26,58.6-57.9,58.6s-57.9-26.3-57.9-58.6
				C755.7,30.3,781.7,4,813.6,4 M813.6,0c-34.1,0-61.9,28.1-61.9,62.6c0,34.5,27.8,62.6,61.9,62.6c34.1,0,61.9-28.1,61.9-62.6
				C875.5,28.1,847.7,0,813.6,0L813.6,0z"/>
			<g>
				<g>
					<path class="st1" d="M784.9,68.2c-8,0-16.7-5.5-16.7-14.4c0-17,21.6-32.6,29-36c1.2-0.5,3,1.7,3.7,3.1c0.6,1.1,0.3,1.6,0.1,1.7
						l0,0c-13.5,7.2-28.1,20.8-28.1,33.6c0,5.5,2.9,7.7,10.3,7.7c8.8,0,28.6-12.1,28.6-20.8c0-3.2-2.4-4.9-7.2-4.9
						c-11.8,0-18.2,7.7-20,14.3c-0.1,0.5-0.7,0.7-1.4,0.6c-0.9-0.2-1.9-0.9-1.8-1.8c0.8-5.8,6.9-18.6,20.4-18.6
						c6,0,13.4,5.4,13.4,11.8C815.4,56.6,798.2,68.2,784.9,68.2z M800.7,22l0.1,0.2L800.7,22L800.7,22L800.7,22z"/>
				</g>
				<g>
					<path class="st1" d="M804.3,109.4c-6.7,0-17.9-3-17.9-14.3c0-8.7,7.3-18.9,21.1-29.6l0.3-0.3c0.9-0.7,3.2,0.7,4.3,2
						c0.9,1.2,0.5,1.7,0.3,1.9l0,0c-6.6,5.5-21.9,18.4-21.9,28.8c0,4,3.2,6.6,8.4,6.6c6.8,0,15.3-2,24-5.6c1.1-0.4,2.4,1,3,2.2
						c0.5,1.1,0.5,1.9-0.1,2.2C818,107.7,811.8,109.4,804.3,109.4z"/>
				</g>
				<g>
					<path class="st1" d="M833.4,68.8c-14.6,0-14.7-10.7-14.7-11.2c0-2.4,1.4-4.1,2.3-5c0.6-0.6,1.9-0.3,2.4-0.1
						c1,0.3,2.1,1,2.2,1.7c0.1,0.3-0.1,0.6-0.3,0.8c-2.1,1.7-3,3-3,5.4c0,2.1,2.2,4.3,6.2,4.3c15.8,0,25.9-13.6,25.9-20.7
						c0-6.5-4.8-7.8-8.8-7.8c-13.9,0-24.1,13.3-24.5,13.8l0,0c-0.2,0.3-0.5,0.4-0.9,0.3c-1.1-0.1-2.6-1.8-3.2-3.2
						c-0.3-0.7-0.3-1.3,0-1.7c1.1-1.5,4.4-5.1,8.7-8.3c5.6-4.2,11.1-6.3,16.2-6.3c11.1,0,16.1,8.1,16.1,15.6
						C858.1,58.4,846.6,68.8,833.4,68.8z"/>
				</g>
			</g>
		</g>
	</g>
</g>
<g id="grid" class="st2">
	<line class="st3" x1="-255.1" y1="56.2" x2="1019.1" y2="56.2"/>
	<line class="st4" x1="-255.1" y1="62.6" x2="1019.1" y2="62.6"/>
	<line class="st4" x1="-255.1" y1="68.9" x2="1019.1" y2="68.9"/>
	<line class="st3" x1="-255.1" y1="183.7" x2="1019.1" y2="183.7"/>
	<line class="st3" x1="0" y1="311.3" x2="0" y2="-71.4"/>
	<line class="st3" x1="-127.6" y1="311.3" x2="-127.6" y2="-71.4"/>
	<line class="st3" x1="127.6" y1="311.3" x2="127.6" y2="-71.4"/>
	<line class="st3" x1="255.1" y1="311.3" x2="255.1" y2="-71.4"/>
	<line class="st3" x1="382.7" y1="311.3" x2="382.7" y2="-71.4"/>
	<line class="st3" x1="510.2" y1="311.3" x2="510.2" y2="-71.4"/>
	<line class="st3" x1="637.8" y1="311.3" x2="637.8" y2="-71.4"/>
	<line class="st3" x1="765.3" y1="311.3" x2="765.3" y2="-71.4"/>
	<line class="st3" x1="892.9" y1="311.3" x2="892.9" y2="-71.4"/>
</g>
</svg>
