<svg id="Layer_1" data-name="Layer 1" xmlns="http://www.w3.org/2000/svg" viewBox="0 0 875.49 208.87"><defs><style>.cls-1{fill:none;}.cls-2{fill:#0000a4;}</style></defs><rect class="cls-1" x="-255.12" y="-71.38" width="1275.59" height="382.68"/><path class="cls-2" d="M0,68.92H40.85v33.82a69.54,69.54,0,0,1,24.92-4.46c32.08,0,55.34,23.49,55.34,55.7,0,24.3-16.64,53.06-54.54,53.06H0ZM40.84,171.61A91,91,0,0,0,56.28,173c14.64,0,24.26-7.9,24.26-20.25,0-12.15-9.42-20.46-23.06-20.46a55.34,55.34,0,0,0-16.65,2.43v36.86Z"/><path class="cls-2" d="M189.79,98.29c45.11,0,62.36,29.37,62.36,55.29,0,28.35-19.85,55.29-62,55.29-45.11,0-62.76-29.16-62.76-55.29C127.43,126,146.07,98.29,189.79,98.29Zm0,76c12.75,0,21.53-8.51,21.53-20.66s-8.78-20.66-21.53-20.66-21.53,8.51-21.53,20.66S177,174.24,189.79,174.24Z"/><path class="cls-2" d="M260.43,68.92h40.79V207.05H260.43Z"/><path class="cls-2" d="M354.63,184c0,13.77-10.66,24.91-24.09,24.91S306.25,197.73,306.25,184a24.42,24.42,0,0,1,24.29-24.71C344,159.25,354.63,170.19,354.63,184Z"/><path class="cls-2" d="M446.89,202.19c-13.56,5.06-21.81,6.68-33,6.68-34.77,0-58.94-22.48-58.94-54.68,0-26.73,17.48-55.9,57.76-55.9a104.87,104.87,0,0,1,33.4,5.47V139.2c-9-4.25-17.29-6.28-25.93-6.28-14.54,0-24.36,8.51-24.36,20.86,0,12.15,10.41,20.46,25.54,20.46,7.66,0,14.34-1.82,25.54-6.68Z"/><path class="cls-2" d="M514.67,98.29c45.11,0,62.36,29.37,62.36,55.29,0,28.35-19.85,55.29-62,55.29-45.11,0-62.76-29.16-62.76-55.29C452.32,126,471,98.29,514.67,98.29Zm0,76c12.75,0,21.53-8.51,21.53-20.66s-8.78-20.66-21.53-20.66-21.53,8.51-21.53,20.66S501.92,174.24,514.67,174.24Z"/><path class="cls-2" d="M585.88,100.11h40.77v14.18c9.87-10.94,21.5-16,34.4-16,14.71,0,24.18,5.67,32,19,10.68-12.35,23.78-19,37.89-19,24,0,34.37,19,34.37,40.3v68.46H724.58V145.68c0-7.7-4.52-12.76-11.37-12.76-6.05,0-12.84,3.85-17.07,10.94v63.19H655.08V146.49c0-7.9-4.72-13.57-12-13.57-5.24,0-12,3.85-16.46,10.94v63.19H585.88Z"/><path class="cls-2" d="M813.63,4c31.93,0,57.9,26.29,57.9,58.61s-26,58.58-57.9,58.58-57.92-26.28-57.92-58.58S781.69,4,813.63,4m0-4c-34.12,0-61.88,28.07-61.88,62.57s27.76,62.55,61.88,62.55,61.86-28.06,61.86-62.55S847.74,0,813.63,0Z"/><path class="cls-2" d="M784.94,68.22c-8,0-16.66-5.52-16.66-14.44,0-17,21.56-32.57,29-36,1.16-.54,3,1.67,3.67,3.05.57,1.13.34,1.56.05,1.71h0c-13.53,7.24-28.08,20.84-28.08,33.57,0,5.52,2.9,7.67,10.34,7.67,8.75,0,28.63-12.06,28.63-20.75,0-3.25-2.41-4.9-7.17-4.9-11.79,0-18.15,7.68-20,14.27-.14.49-.68.7-1.41.56-.94-.19-1.89-.92-1.78-1.76.76-5.84,7-18.64,20.43-18.64,6,0,13.43,5.42,13.43,11.76C815.37,56.61,798.23,68.22,784.94,68.22ZM800.73,22l.13.24-.13-.24Z"/><path class="cls-2" d="M804.28,109.39c-6.66,0-17.93-3-17.93-14.28,0-8.71,7.29-18.94,21.09-29.58l.34-.27c.92-.72,3.22.73,4.26,2s.5,1.74.27,1.93h0c-6.57,5.5-21.95,18.37-21.95,28.8,0,4,3.24,6.56,8.45,6.56,6.84,0,15.35-2,24-5.56,1.11-.45,2.41,1,3,2.22s.48,1.92-.1,2.24C818,107.68,811.82,109.39,804.28,109.39Z"/><path class="cls-2" d="M833.37,68.84c-14.56,0-14.72-10.73-14.72-11.19a7.08,7.08,0,0,1,2.31-5c.61-.59,1.88-.28,2.39-.12,1,.32,2.1,1,2.25,1.67a.81.81,0,0,1-.3.79c-2,1.74-3,3-3,5.42,0,2.08,2.17,4.29,6.19,4.29,15.83,0,25.92-13.6,25.92-20.72,0-6.49-4.77-7.85-8.76-7.85-13.88,0-24.06,13.27-24.49,13.84h0a.88.88,0,0,1-.87.35c-1.09-.14-2.59-1.81-3.16-3.16a1.74,1.74,0,0,1,0-1.72,48.1,48.1,0,0,1,8.72-8.3c5.64-4.17,11.1-6.28,16.25-6.28,11.06,0,16.1,8.08,16.1,15.59C858.13,58.4,846.56,68.84,833.37,68.84Z"/></svg>