<?xml version="1.0"?>
<svg xmlns="http://www.w3.org/2000/svg" xmlns:xlink="http://www.w3.org/1999/xlink" xmlns:svgjs="http://svgjs.com/svgjs" version="1.1" width="512" height="512" x="0" y="0" viewBox="0 0 511.992 511.992" style="enable-background:new 0 0 512 512" xml:space="preserve" class=""><g><g xmlns="http://www.w3.org/2000/svg"><path d="m322.118 221.668-14.897-21.246c-4.51-6.432-7.176-13.974-7.712-21.811l-9.064-132.704c2.014-.952 3.854-2.277 5.384-3.951 3.271-3.58 4.897-8.403 4.461-13.233l-1.171-12.972c-.81-8.979-8.222-15.751-17.239-15.751h-51.771c-9.018 0-16.428 6.772-17.239 15.752l-1.171 12.972c-.436 4.83 1.19 9.653 4.461 13.233 1.531 1.675 3.372 2.999 5.387 3.952l-9.063 132.703c-.535 7.837-3.202 15.379-7.712 21.811l-14.896 21.246c-5.518 7.869-8.435 17.109-8.435 26.72v236.18c0 15.122 12.302 27.424 27.424 27.424h28.974c4.142 0 7.5-3.358 7.5-7.5s-3.358-7.5-7.5-7.5h-28.974c-6.851 0-12.424-5.573-12.424-12.424v-236.18c0-6.514 1.977-12.776 5.716-18.109l14.896-21.246c6.08-8.67 9.674-18.836 10.396-29.4l1.178-17.255c7.94 8.099 17.436 12.614 27.37 12.614s19.43-4.513 27.37-12.613l1.178 17.253c.721 10.563 4.316 20.73 10.395 29.4l14.897 21.246c3.739 5.333 5.716 11.595 5.716 18.109v28.927c0 4.142 3.358 7.5 7.5 7.5s7.5-3.358 7.5-7.5v-28.927c-.001-9.611-2.917-18.85-8.435-26.72zm-94.308-204.567c.108-1.197 1.097-2.101 2.299-2.101h51.771c1.203 0 2.192.903 2.3 2.101l1.171 12.972c.08.883-.338 1.485-.595 1.766-.256.281-.818.751-1.704.751h-54.114c-.886 0-1.448-.471-1.704-.751-.257-.28-.675-.883-.595-1.766zm28.186 142.893c-9.709 0-19.239-7.975-25.745-21.405l6.215-90.999h39.06l6.215 90.999c-6.506 13.43-16.036 21.405-25.745 21.405z" fill="#0000ff" data-original="#000000" style="" class=""/><path d="m323.052 306.105c-4.142 0-7.5 3.358-7.5 7.5v170.963c0 6.851-5.573 12.424-12.424 12.424h-29.001c-4.142 0-7.5 3.358-7.5 7.5s3.358 7.5 7.5 7.5h29.001c15.122 0 27.424-12.302 27.424-27.424v-170.963c0-4.142-3.358-7.5-7.5-7.5z" fill="#0000ff" data-original="#000000" style="" class=""/><path d="m255.996 67.137c-4.142 0-7.5 3.358-7.5 7.5v45.083c0 4.142 3.358 7.5 7.5 7.5s7.5-3.358 7.5-7.5v-45.083c0-4.142-3.358-7.5-7.5-7.5z" fill="#0000ff" data-original="#000000" style="" class=""/><path d="m271.274 409.017c-4.142 0-7.5 3.358-7.5 7.5 0 4.289-3.489 7.779-7.778 7.779s-7.778-3.49-7.778-7.779c0-4.142-3.358-7.5-7.5-7.5s-7.5 3.358-7.5 7.5c0 12.56 10.218 22.779 22.778 22.779s22.778-10.219 22.778-22.779c0-4.142-3.357-7.5-7.5-7.5z" fill="#0000ff" data-original="#000000" style="" class=""/><path d="m240.718 325.202c4.142 0 7.5-3.358 7.5-7.5 0-4.289 3.489-7.778 7.778-7.778s7.778 3.489 7.778 7.778c0 4.142 3.358 7.5 7.5 7.5s7.5-3.358 7.5-7.5c0-12.56-10.218-22.778-22.778-22.778s-22.778 10.218-22.778 22.778c0 4.142 3.358 7.5 7.5 7.5z" fill="#0000ff" data-original="#000000" style="" class=""/><path d="m255.996 461.551c24.396 0 44.244-19.848 44.244-44.244v-25.469c3.261-2.254 5.404-6.014 5.404-10.269v-18.841c0-4.255-2.144-8.015-5.404-10.269v-35.547c0-24.396-19.848-44.244-44.244-44.244s-44.244 19.848-44.244 44.244v35.547c-3.261 2.254-5.404 6.014-5.404 10.269v18.841c0 4.255 2.144 8.015 5.404 10.269v25.469c0 24.397 19.848 44.244 44.244 44.244zm0-15c-16.125 0-29.244-13.119-29.244-29.244v-23.257h58.488v23.257c0 16.126-13.118 29.244-29.244 29.244zm0-158.883c16.125 0 29.244 13.119 29.244 29.244v33.335h-10.831c-4.142 0-7.5 3.358-7.5 7.5s3.358 7.5 7.5 7.5h16.235v13.803h-69.297v-13.803h16.771c4.142 0 7.5-3.358 7.5-7.5s-3.358-7.5-7.5-7.5h-11.367v-33.335c.001-16.125 13.12-29.244 29.245-29.244z" fill="#0000ff" data-original="#000000" style="" class=""/><path d="m255.996 325.197c-4.142 0-7.5 3.358-7.5 7.5v1.125c0 4.142 3.358 7.5 7.5 7.5s7.5-3.358 7.5-7.5v-1.125c0-4.142-3.358-7.5-7.5-7.5z" fill="#0000ff" data-original="#000000" style="" class=""/></g></g></svg>
